<?xml version="1.0" encoding="UTF-8" standalone="no"?>
<!DOCTYPE svg PUBLIC "-//W3C//DTD SVG 20010904//EN"
              "http://www.w3.org/TR/2001/REC-SVG-20010904/DTD/svg10.dtd">

<svg xmlns="http://www.w3.org/2000/svg"
     width="3.00667in" height="0.586667in"
     viewBox="0 0 902 176">
  <path 
        fill="#f21c1a" stroke="none"
        d="M 902.00,46.00
           C 902.00,48.69 902.44,55.44 900.98,57.49
             899.51,59.55 896.30,59.85 894.00,60.25
             894.00,60.25 875.00,63.08 875.00,63.08
             875.00,63.08 795.00,74.92 795.00,74.92
             790.12,75.72 779.78,76.50 776.22,79.51
             772.97,82.26 772.12,87.05 771.13,91.00
             771.13,91.00 765.37,115.00 765.37,115.00
             764.62,118.04 763.69,123.30 761.49,125.49
             758.67,128.29 750.03,128.67 746.00,129.15
             746.00,129.15 709.00,134.00 709.00,134.00
             701.26,134.09 695.28,133.81 688.00,130.66
             657.73,117.59 662.67,69.21 676.81,46.00
             687.09,29.14 701.18,16.53 720.00,10.08
             729.82,6.71 742.65,5.22 753.00,3.73
             753.00,3.73 780.00,0.00 780.00,0.00
             779.97,9.87 778.11,14.68 775.88,24.00
             775.08,27.34 774.77,30.96 771.77,33.15
             768.89,35.26 758.01,36.59 754.00,37.25
             736.15,40.17 722.44,41.39 713.90,60.00
             709.99,68.52 707.83,82.68 713.14,90.98
             717.24,97.40 727.53,100.97 733.79,95.57
             737.16,92.66 738.15,88.16 739.00,84.00
             739.00,84.00 729.00,84.00 729.00,84.00
             729.30,80.62 730.15,75.18 732.70,72.72
             734.82,70.67 741.04,69.60 744.00,69.08
             744.00,69.08 769.00,65.27 769.00,65.27
             769.00,65.27 854.00,52.73 854.00,52.73
             854.00,52.73 902.00,46.00 902.00,46.00 Z
           M 354.00,41.00
           C 354.11,35.96 355.30,25.02 359.39,21.74
             361.52,20.03 365.32,19.82 368.00,19.42
             368.00,19.42 388.00,16.42 388.00,16.42
             388.00,16.42 434.00,9.73 434.00,9.73
             434.00,9.73 465.00,6.00 465.00,6.00
             465.00,6.00 458.00,37.00 458.00,37.00
             458.00,37.00 424.00,42.00 424.00,42.00
             424.00,42.00 412.00,102.00 412.00,102.00
             412.00,102.00 422.00,102.00 422.00,102.00
             421.95,107.49 419.10,124.93 415.57,128.72
             412.23,132.32 404.71,132.58 400.00,133.27
             400.00,133.27 363.00,138.00 363.00,138.00
             363.00,138.00 369.63,106.00 369.63,106.00
             369.63,106.00 383.00,49.00 383.00,49.00
             383.00,49.00 358.00,52.00 358.00,52.00
             358.00,52.00 358.96,63.00 358.96,63.00
             358.96,63.00 358.96,75.00 358.96,75.00
             358.96,98.02 347.26,123.19 329.00,137.32
             304.95,155.93 251.66,164.67 240.44,127.00
             238.89,121.79 239.32,120.88 238.83,116.00
             236.39,91.59 244.56,64.77 262.17,47.17
             278.78,30.56 299.17,24.74 322.00,25.00
             327.48,25.07 332.99,26.23 338.00,28.52
             343.96,31.24 349.40,36.44 354.00,41.00 Z
           M 604.00,26.23
           C 604.00,26.23 630.00,26.23 630.00,26.23
             644.67,26.20 655.86,37.55 659.96,51.00
             665.62,69.53 661.73,95.03 652.68,112.00
             641.46,133.04 617.64,151.71 593.00,152.00
             593.00,152.00 576.00,152.00 576.00,152.00
             555.08,151.74 542.03,133.73 542.00,114.00
             541.98,103.99 541.47,96.94 543.90,87.00
             551.55,55.64 572.07,33.36 604.00,26.23 Z
           M 733.00,67.00
           C 733.01,63.00 732.83,57.60 735.70,54.43
             738.39,51.45 744.23,51.30 748.00,50.85
             748.00,50.85 772.00,47.27 772.00,47.27
             772.00,47.27 858.00,34.73 858.00,34.73
             858.00,34.73 902.00,29.00 902.00,29.00
             902.00,29.00 902.00,43.00 902.00,43.00
             902.00,43.00 863.00,48.57 863.00,48.57
             863.00,48.57 782.00,60.42 782.00,60.42
             782.00,60.42 733.00,67.00 733.00,67.00 Z
           M 175.00,88.00
           C 179.90,87.96 181.18,87.77 186.00,86.92
             189.69,86.26 193.00,85.60 195.72,82.78
             201.14,77.16 202.70,51.17 207.09,45.42
             209.52,42.23 214.35,42.12 218.00,41.58
             218.00,41.58 245.00,38.00 245.00,38.00
             244.91,47.71 239.20,72.21 236.28,82.00
             236.28,82.00 232.00,96.00 232.00,96.00
             232.00,96.00 208.00,99.92 208.00,99.92
             208.00,99.92 176.00,104.73 176.00,104.73
             176.00,104.73 58.00,122.27 58.00,122.27
             58.00,122.27 0.00,131.00 0.00,131.00
             0.00,131.00 0.00,124.00 0.00,124.00
             0.00,124.00 1.02,116.51 1.02,116.51
             1.02,116.51 10.00,113.13 10.00,113.13
             10.00,113.13 31.00,110.25 31.00,110.25
             31.00,110.25 89.00,101.58 89.00,101.58
             89.00,101.58 136.00,95.00 136.00,95.00
             136.00,95.00 137.00,84.00 137.00,84.00
             137.00,84.00 128.00,84.00 128.00,84.00
             128.00,84.00 131.48,64.00 131.48,64.00
             131.48,64.00 134.84,55.85 134.84,55.85
             134.84,55.85 149.00,51.87 149.00,51.87
             149.00,51.87 183.00,48.00 183.00,48.00
             183.00,48.00 175.00,88.00 175.00,88.00 Z
           M 428.00,84.00
           C 428.14,77.53 429.92,71.28 431.35,65.00
             431.99,62.20 432.42,58.61 434.51,56.51
             437.91,53.09 452.78,51.71 458.00,51.00
             477.43,48.34 508.78,40.79 524.96,55.21
             533.60,62.91 536.09,73.09 537.17,84.00
             537.44,86.81 537.90,88.00 537.68,91.00
             535.90,114.74 529.45,133.60 511.00,149.82
             491.64,166.84 470.76,167.62 447.00,171.44
             447.00,171.44 418.00,176.00 418.00,176.00
             418.00,176.00 423.79,144.00 423.79,144.00
             423.79,144.00 437.00,83.00 437.00,83.00
             437.00,83.00 428.00,84.00 428.00,84.00 Z
           M 619.00,60.00
           C 614.35,58.95 609.80,57.15 605.00,58.65
             593.78,62.15 586.69,81.28 585.14,92.00
             585.14,92.00 585.14,105.00 585.14,105.00
             585.01,107.29 584.96,109.80 585.65,112.00
             590.63,127.79 606.02,115.31 611.07,107.00
             613.62,102.82 615.17,98.62 616.66,94.00
             619.41,85.42 620.10,81.97 620.00,73.00
             620.00,73.00 619.00,60.00 619.00,60.00 Z
           M 304.00,59.34
           C 285.06,64.42 281.80,89.61 282.00,106.00
             282.11,114.48 285.26,120.82 295.00,118.61
             301.37,117.16 305.34,111.42 308.22,106.00
             315.17,92.92 316.19,86.49 316.00,72.00
             315.88,63.53 313.26,58.51 304.00,59.34 Z
           M 463.00,137.00
           C 485.65,136.49 494.23,113.35 494.00,94.00
             493.96,90.61 493.79,87.06 491.91,84.11
             488.74,79.11 479.81,77.10 475.85,82.28
             473.97,84.74 472.66,92.63 471.88,96.00
             471.88,96.00 468.00,113.00 468.00,113.00
             468.00,113.00 463.00,137.00 463.00,137.00 Z
           M 0.00,133.00
           C 0.00,133.00 27.00,129.27 27.00,129.27
             27.00,129.27 74.00,122.42 74.00,122.42
             74.00,122.42 168.00,108.73 168.00,108.73
             168.00,108.73 231.00,100.00 231.00,100.00
             231.00,100.00 225.00,130.00 225.00,130.00
             225.00,130.00 234.00,130.00 234.00,130.00
             234.00,130.00 230.76,150.00 230.76,150.00
             230.76,150.00 227.30,158.10 227.30,158.10
             227.30,158.10 213.00,162.00 213.00,162.00
             213.00,162.00 180.00,166.00 180.00,166.00
             180.00,166.00 188.00,121.00 188.00,121.00
             183.24,121.22 172.99,122.29 169.21,125.00
             165.49,127.67 164.43,132.80 163.37,137.00
             163.37,137.00 158.42,158.00 158.42,158.00
             157.78,160.88 156.97,166.36 155.15,168.57
             153.04,171.14 149.08,171.56 146.00,172.00
             146.00,172.00 126.00,175.00 126.00,175.00
             123.07,175.54 118.99,176.57 117.69,172.85
             116.73,170.12 119.35,163.03 120.11,160.00
             120.11,160.00 127.00,130.00 127.00,130.00
             127.00,130.00 89.00,135.58 89.00,135.58
             89.00,135.58 31.00,144.13 31.00,144.13
             31.00,144.13 0.00,148.00 0.00,148.00
             0.00,148.00 0.00,133.00 0.00,133.00 Z" />
</svg>
