<?xml version="1.0" encoding="UTF-8" standalone="no"?>
<!DOCTYPE svg PUBLIC "-//W3C//DTD SVG 20010904//EN"
              "http://www.w3.org/TR/2001/REC-SVG-20010904/DTD/svg10.dtd">

<svg xmlns="http://www.w3.org/2000/svg"
     width="0.853333in" height="0.853333in"
     viewBox="0 0 256 256">
  <path id="Selection"
        fill="#f21c1a" stroke="none"
        d="M 67.00,100.00
           C 71.81,99.36 86.48,98.49 89.49,95.49
             91.69,93.30 92.18,88.97 92.88,86.00
             92.88,86.00 97.88,65.00 97.88,65.00
             98.42,62.66 99.25,57.36 100.82,55.74
             102.67,53.83 109.28,53.35 112.00,53.05
             112.00,53.05 138.00,49.00 138.00,49.00
             138.00,49.00 135.65,64.00 135.65,64.00
             135.65,64.00 128.87,92.00 128.87,92.00
             128.87,92.00 124.30,106.02 124.30,106.02
             124.30,106.02 115.00,108.25 115.00,108.25
             115.00,108.25 92.00,111.59 92.00,111.59
             92.00,111.59 32.00,120.43 32.00,120.43
             32.00,120.43 0.00,125.00 0.00,125.00
             0.00,125.00 0.00,110.00 0.00,110.00
             0.00,110.00 29.00,106.00 29.00,106.00
             29.00,106.00 31.00,94.00 31.00,94.00
             31.00,94.00 21.00,95.00 21.00,95.00
             21.00,95.00 25.12,75.00 25.12,75.00
             25.12,75.00 27.82,66.74 27.82,66.74
             27.82,66.74 40.00,63.61 40.00,63.61
             40.00,63.61 76.00,59.00 76.00,59.00
             76.00,59.00 67.00,100.00 67.00,100.00 Z
           M 138.00,119.00
           C 138.00,119.00 142.00,101.00 142.00,101.00
             142.50,98.65 143.23,94.33 144.85,92.58
             147.37,89.86 162.74,88.36 167.00,87.62
             185.48,85.61 210.64,78.30 228.00,87.62
             234.30,90.70 239.02,95.67 242.19,102.00
             243.60,104.81 245.22,111.54 247.43,112.98
             249.56,114.34 253.56,113.32 256.00,112.98
             256.00,112.98 256.00,128.00 256.00,128.00
             251.86,128.34 248.39,128.46 245.00,131.00
             245.00,131.00 234.91,132.04 234.91,132.04
             234.91,132.04 224.00,133.00 224.00,133.00
             224.00,133.00 205.00,135.00 205.00,135.00
             205.00,129.34 205.39,123.86 201.51,119.19
             198.22,115.23 188.73,112.27 185.25,117.57
             185.25,117.57 180.60,137.00 180.60,137.00
             180.60,137.00 172.00,173.00 172.00,173.00
             184.36,174.97 195.44,163.38 200.13,153.00
             201.67,149.61 203.26,141.79 205.42,140.02
             207.54,138.27 215.99,137.25 219.00,136.75
             219.00,136.75 230.00,135.58 230.00,135.58
             230.00,135.58 256.00,132.00 256.00,132.00
             256.00,132.00 256.00,146.00 256.00,146.00
             252.98,146.40 247.72,146.89 245.34,148.74
             242.83,150.69 238.39,162.62 235.63,167.00
             229.14,177.30 223.13,183.92 213.00,190.78
             195.53,202.61 175.23,204.50 155.00,207.16
             155.00,207.16 128.00,212.00 128.00,212.00
             128.00,212.00 133.77,183.00 133.77,183.00
             133.77,183.00 143.01,142.00 143.01,142.00
             143.01,142.00 148.00,118.00 148.00,118.00
             148.00,118.00 139.00,120.00 139.00,120.00
             139.00,120.00 138.00,119.00 138.00,119.00 Z
           M 0.00,129.00
           C 0.00,129.00 26.00,125.27 26.00,125.27
             26.00,125.27 91.00,115.85 91.00,115.85
             101.07,114.63 114.04,111.02 124.00,112.00
             124.00,112.00 117.00,142.00 117.00,142.00
             117.00,142.00 127.00,141.00 127.00,141.00
             127.00,141.00 123.21,161.00 123.21,161.00
             123.21,161.00 120.28,169.18 120.28,169.18
             120.28,169.18 107.00,172.28 107.00,172.28
             107.00,172.28 90.00,174.44 90.00,174.44
             90.00,174.44 73.00,177.00 73.00,177.00
             73.00,177.00 82.00,131.00 82.00,131.00
             77.49,131.60 63.30,133.04 60.30,135.58
             57.53,137.93 56.77,143.55 55.99,147.00
             55.99,147.00 50.47,170.00 50.47,170.00
             49.82,172.68 49.18,178.37 47.27,180.18
             45.34,182.00 41.52,181.93 39.00,182.28
             39.00,182.28 19.00,185.20 19.00,185.20
             16.26,185.61 11.83,187.73 10.78,184.67
             10.08,182.63 12.90,174.47 13.58,172.00
             13.58,172.00 21.00,140.00 21.00,140.00
             21.00,140.00 0.00,143.00 0.00,143.00
             0.00,143.00 0.00,129.00 0.00,129.00 Z" />
</svg>
